# xmcd
#
# Track frame offsets: 
#        150
#        21198
#        45521
#        66319
#        90350
#        107749
#        128837
#        148015
#        175554
#        194147
#
# Disc length: 2800 seconds
#
# Revision: 0
# Processed by: cddbd v1.5.2PL0 Copyright (c) Steve Scherf et al.
# Submitted via: ExactAudioCopy v0.99pb4
#
DISCID=870aee0a
DTITLE=Geoffrey McBride - If It Wasn't For The Heartache
DYEAR=2008
DGENRE=Blues
TTITLE0=Put On Your Sexy
TTITLE1=Nobody's Fool
TTITLE2=Crazy
TTITLE3=Ain't Nothing Like A Bad Woman
TTITLE4=Precious, Precious
TTITLE5=If It Wasn't For The Heartache
TTITLE6=I've Been Running
TTITLE7=Criminal Lawyer
TTITLE8=Hoochie Coo
TTITLE9=You Can't Be First
EXTD=
EXTT0=
EXTT1=
EXTT2=
EXTT3=
EXTT4=
EXTT5=
EXTT6=
EXTT7=
EXTT8=
EXTT9=
PLAYORDER=
